<svg xmlns="http://www.w3.org/2000/svg" viewBox="0 0 512 512" role="img" aria-label="智创 AI 工作台图标">
  <defs>
    <linearGradient id="bg" x1="0%" y1="0%" x2="100%" y2="100%">
      <stop offset="0%" stop-color="#1677ff" />
      <stop offset="100%" stop-color="#003eb3" />
    </linearGradient>
    <linearGradient id="doc" x1="0%" y1="0%" x2="0%" y2="100%">
      <stop offset="0%" stop-color="#ffffff" />
      <stop offset="100%" stop-color="#f0f5ff" />
    </linearGradient>
    <linearGradient id="fold" x1="0%" y1="0%" x2="100%" y2="100%">
      <stop offset="0%" stop-color="#bae0ff" />
      <stop offset="100%" stop-color="#91caff" />
    </linearGradient>
    <filter id="shadow" x="-10%" y="-10%" width="120%" height="120%">
      <feDropShadow dx="0" dy="8" stdDeviation="12" flood-color="#001d66" flood-opacity="0.3" />
    </filter>
  </defs>

  <rect x="32" y="32" width="448" height="448" rx="100" fill="url(#bg)" />

  <path
    d="M170 120h110l90 90v150c0 17-13 30-30 30H170c-17 0-30-13-30-30V150c0-17 13-30 30-30z"
    fill="url(#doc)"
    filter="url(#shadow)"
  />
  <path d="M280 120v60c0 17 13 30 30 30h60l-90-90z" fill="url(#fold)" />

  <rect x="180" y="220" width="130" height="24" rx="12" fill="#d9e8ff" />
  <rect x="180" y="270" width="90" height="24" rx="12" fill="#d9e8ff" />

  <path
    d="M190 320L240 370L340 240"
    fill="none"
    stroke="#52c41a"
    stroke-width="32"
    stroke-linecap="round"
    stroke-linejoin="round"
  />
</svg>
